<?xml version="1.0" encoding="UTF-8"?>
<!DOCTYPE svg PUBLIC "-//W3C//DTD SVG 1.1//EN" "http://www.w3.org/Graphics/SVG/1.1/DTD/svg11.dtd">
<svg xmlns="http://www.w3.org/2000/svg" version="1.1" width="942px" height="275px" style="shape-rendering:geometricPrecision; text-rendering:geometricPrecision; image-rendering:optimizeQuality; fill-rule:evenodd; clip-rule:evenodd" xmlns:xlink="http://www.w3.org/1999/xlink">
<g><path style="opacity:1" fill="#fefefe" d="M -0.5,-0.5 C 313.5,-0.5 627.5,-0.5 941.5,-0.5C 941.5,91.1667 941.5,182.833 941.5,274.5C 627.5,274.5 313.5,274.5 -0.5,274.5C -0.5,182.833 -0.5,91.1667 -0.5,-0.5 Z"/></g>
<g><path style="opacity:1" fill="#233a65" d="M 158.5,56.5 C 159.833,56.5 160.5,57.1667 160.5,58.5C 161.148,72.2086 160.481,85.5419 158.5,98.5C 156.762,91.8143 154.262,85.1476 151,78.5C 148.621,74.6198 145.454,71.6198 141.5,69.5C 133.919,64.7377 125.585,63.2377 116.5,65C 103.541,70.681 100.208,79.5144 106.5,91.5C 110.69,96.6011 115.69,100.768 121.5,104C 128.729,108.114 136.063,111.947 143.5,115.5C 152.794,120.798 160.461,127.798 166.5,136.5C 171.358,165.054 159.191,180.388 130,182.5C 124.774,182.055 119.607,181.222 114.5,180C 109.67,177.918 104.67,176.418 99.5,175.5C 95.1484,175.901 92.8151,178.235 92.5,182.5C 91.8333,182.5 91.1667,182.5 90.5,182.5C 90.5,168.833 90.5,155.167 90.5,141.5C 91.5,141.5 92.5,141.5 93.5,141.5C 97.7208,167.75 112.721,178.416 138.5,173.5C 152.384,167.685 155.884,158.018 149,144.5C 147.296,142.627 145.463,140.96 143.5,139.5C 130.203,131.181 116.869,122.847 103.5,114.5C 86.3344,100.822 84.1677,85.1554 97,67.5C 106.778,58.5112 118.278,55.3445 131.5,58C 138.079,59.6386 144.579,61.472 151,63.5C 152.167,63.3333 153.333,63.1667 154.5,63C 155.47,60.4348 156.804,58.2681 158.5,56.5 Z"/></g>
<g><path style="opacity:1" fill="#e7e7e7" d="M 227.5,59.5 C 258.003,58.1702 288.669,58.1702 319.5,59.5C 319.808,60.3081 320.308,60.9747 321,61.5C 322.513,70.4469 322.846,79.4469 322,88.5C 318.667,92.5 315.333,92.5 312,88.5C 309.546,81.7586 305.713,75.9253 300.5,71C 288.833,70.3333 277.167,70.3333 265.5,71C 264.175,84.8333 264.175,98.6666 265.5,112.5C 264.17,105.867 263.503,98.8667 263.5,91.5C 263.667,84.5 263.833,77.5 264,70.5C 264.5,70 265,69.5 265.5,69C 278.635,67.9347 291.635,68.4347 304.5,70.5C 309.27,74.3627 312.27,79.3627 313.5,85.5C 314.568,86.4345 315.901,86.7678 317.5,86.5C 317.666,79.1591 317.5,71.8258 317,64.5C 316.768,63.2625 316.268,62.2625 315.5,61.5C 286.519,59.508 257.186,58.8413 227.5,59.5 Z"/></g>
<g><path style="opacity:1" fill="#213964" d="M 227.5,59.5 C 257.186,58.8413 286.519,59.508 315.5,61.5C 316.166,69.4827 316.499,77.4827 316.5,85.5C 315.5,85.5 314.5,85.5 313.5,85.5C 312.27,79.3627 309.27,74.3627 304.5,70.5C 302.266,68.5541 299.599,67.3874 296.5,67C 284.505,66.5001 272.505,66.3335 260.5,66.5C 260.5,82.1667 260.5,97.8333 260.5,113.5C 269.349,113.826 278.016,113.493 286.5,112.5C 289.265,112.202 291.765,111.202 294,109.5C 295.704,104.883 297.537,100.549 299.5,96.5C 300.833,96.5 301.5,97.1667 301.5,98.5C 301.5,111.5 301.5,124.5 301.5,137.5C 300.167,137.5 298.833,137.5 297.5,137.5C 297.665,134.482 297.498,131.482 297,128.5C 296.623,127.058 295.79,126.058 294.5,125.5C 293.198,123.178 291.198,121.845 288.5,121.5C 279.348,120.506 270.015,120.173 260.5,120.5C 260.333,135.837 260.5,151.17 261,166.5C 261.24,168.852 262.073,170.852 263.5,172.5C 264.899,173.89 266.566,174.89 268.5,175.5C 268.833,175.5 269.167,175.5 269.5,175.5C 271.948,176.473 274.615,176.806 277.5,176.5C 277.5,177.5 277.5,178.5 277.5,179.5C 262.167,179.5 246.833,179.5 231.5,179.5C 229.833,179.5 228.167,179.5 226.5,179.5C 226.5,178.5 226.5,177.5 226.5,176.5C 230.7,176.81 234.7,176.143 238.5,174.5C 241.39,173.101 242.89,170.768 243,167.5C 243.667,134.833 243.667,102.167 243,69.5C 238.884,64.1756 233.384,61.8422 226.5,62.5C 226.263,61.209 226.596,60.209 227.5,59.5 Z"/></g>
<g><path style="opacity:1" fill="#233a65" d="M 509.5,56.5 C 511.179,56.2852 512.179,56.9519 512.5,58.5C 518.989,73.9878 525.656,89.3211 532.5,104.5C 540.734,127.033 550.234,149.033 561,170.5C 562.129,172.141 563.629,173.141 565.5,173.5C 568.084,175.472 571.084,176.472 574.5,176.5C 574.715,178.179 574.048,179.179 572.5,179.5C 559.833,179.5 547.167,179.5 534.5,179.5C 531.302,180.036 528.635,179.369 526.5,177.5C 530.305,176.167 534.139,174.5 538,172.5C 539.115,164.359 537.281,157.026 532.5,150.5C 532.065,147.843 531.065,145.509 529.5,143.5C 529.461,142.417 529.127,141.417 528.5,140.5C 512.833,139.167 497.167,139.167 481.5,140.5C 477.145,149.401 473.478,158.568 470.5,168C 470.615,171.947 472.615,174.114 476.5,174.5C 479.167,175.167 481.833,175.833 484.5,176.5C 484.5,177.5 484.5,178.5 484.5,179.5C 460.759,179.823 437.092,179.489 413.5,178.5C 401.192,161.185 388.858,143.851 376.5,126.5C 376.047,125.542 375.381,124.708 374.5,124C 370.179,123.501 365.846,123.334 361.5,123.5C 361.333,137.171 361.5,150.837 362,164.5C 361.563,170.323 364.063,173.989 369.5,175.5C 369.833,175.5 370.167,175.5 370.5,175.5C 372.948,176.473 375.615,176.806 378.5,176.5C 378.5,177.5 378.5,178.5 378.5,179.5C 363.167,179.5 347.833,179.5 332.5,179.5C 331.167,179.5 329.833,179.5 328.5,179.5C 327.596,178.791 327.263,177.791 327.5,176.5C 334.656,177.834 340.156,175.5 344,169.5C 344.667,136.167 344.667,102.833 344,69.5C 342.332,65.8345 339.499,63.6678 335.5,63C 332.854,62.5026 330.187,62.3359 327.5,62.5C 327.5,61.5 327.5,60.5 327.5,59.5C 346.836,59.3334 366.17,59.5 385.5,60C 390.54,60.6778 395.54,61.5111 400.5,62.5C 409.801,65.801 416.134,72.1344 419.5,81.5C 423.152,103.182 414.152,116.182 392.5,120.5C 394.07,124.638 396.404,128.304 399.5,131.5C 406.833,142.823 414.666,153.823 423,164.5C 431.599,174.369 442.099,177.536 454.5,174C 459.144,170.516 462.477,166.016 464.5,160.5C 478.986,125.537 493.986,90.8699 509.5,56.5 Z"/></g>
<g><path style="opacity:1" fill="#223965" d="M 614.5,61.5 C 628.653,91.8071 642.819,122.14 657,152.5C 658.786,149.264 660.286,145.93 661.5,142.5C 674.118,115.257 686.785,87.9239 699.5,60.5C 710.814,59.5012 722.147,59.1678 733.5,59.5C 733.5,60.5 733.5,61.5 733.5,62.5C 725.467,61.1052 719.967,64.1052 717,71.5C 716.333,103.167 716.333,134.833 717,166.5C 717.488,169.855 718.988,172.522 721.5,174.5C 725.295,176.143 729.295,176.809 733.5,176.5C 733.5,177.5 733.5,178.5 733.5,179.5C 717.833,179.5 702.167,179.5 686.5,179.5C 684.517,179.843 683.183,179.176 682.5,177.5C 682.5,177.167 682.5,176.833 682.5,176.5C 687.121,177.007 691.454,176.174 695.5,174C 697.487,172.681 698.654,170.848 699,168.5C 699.5,143.502 699.667,118.502 699.5,93.5C 699.666,89.1539 699.499,84.8206 699,80.5C 683.819,113.526 668.653,146.526 653.5,179.5C 652.178,179.67 651.011,179.337 650,178.5C 648.96,175.177 647.46,172.177 645.5,169.5C 634.712,144.59 623.378,119.923 611.5,95.5C 609.346,90.5215 607.179,85.5215 605,80.5C 604.333,109.5 604.333,138.5 605,167.5C 605.537,171.533 607.704,174.2 611.5,175.5C 614.728,176.414 618.061,176.747 621.5,176.5C 621.5,177.5 621.5,178.5 621.5,179.5C 607.5,179.5 593.5,179.5 579.5,179.5C 579.5,178.5 579.5,177.5 579.5,176.5C 584.08,176.887 588.414,176.053 592.5,174C 594.317,172.2 595.484,170.034 596,167.5C 596.667,135.5 596.667,103.5 596,71.5C 595.208,69.4127 594.041,67.5793 592.5,66C 587.983,64.0132 583.65,62.1799 579.5,60.5C 590.659,59.3407 601.992,59.1741 613.5,60C 614.056,60.3826 614.389,60.8826 614.5,61.5 Z"/></g>
<g><path style="opacity:1" fill="#233a65" d="M 741.5,59.5 C 772.167,59.5 802.833,59.5 833.5,59.5C 834.442,68.1127 834.775,76.7794 834.5,85.5C 833.5,85.5 832.5,85.5 831.5,85.5C 831.279,82.9327 830.612,80.5994 829.5,78.5C 828.737,74.6304 826.737,71.6304 823.5,69.5C 822.158,68.207 820.491,67.3736 818.5,67C 804.171,66.5001 789.837,66.3334 775.5,66.5C 774.849,82.5357 775.516,98.2023 777.5,113.5C 788.505,113.667 799.505,113.5 810.5,113C 812.584,112.303 814.251,111.136 815.5,109.5C 819.125,106.058 820.792,101.725 820.5,96.5C 821.5,96.5 822.5,96.5 823.5,96.5C 823.5,110.167 823.5,123.833 823.5,137.5C 822.5,137.5 821.5,137.5 820.5,137.5C 820.784,135.585 820.451,133.919 819.5,132.5C 819.606,129.385 818.606,126.719 816.5,124.5C 814.776,122.311 812.442,121.144 809.5,121C 798.172,120.5 786.838,120.333 775.5,120.5C 775.333,136.837 775.5,153.17 776,169.5C 777.129,171.141 778.629,172.141 780.5,172.5C 793.344,172.829 806.011,172.495 818.5,171.5C 822.187,170.824 825.52,169.324 828.5,167C 833.128,161.572 837.128,155.739 840.5,149.5C 841.5,149.5 842.5,149.5 843.5,149.5C 843.5,150.5 843.5,151.5 843.5,152.5C 839.896,161.135 836.563,169.968 833.5,179C 806.502,179.5 779.502,179.667 752.5,179.5C 748.833,179.5 745.167,179.5 741.5,179.5C 741.5,178.5 741.5,177.5 741.5,176.5C 746.618,177.111 751.285,175.944 755.5,173C 757.016,171.103 757.683,168.936 757.5,166.5C 758.664,134.669 758.831,102.669 758,70.5C 757.261,67.4265 755.428,65.2598 752.5,64C 748.94,62.7633 745.273,62.2633 741.5,62.5C 741.5,61.5 741.5,60.5 741.5,59.5 Z"/></g>
<g><path style="opacity:1" fill="#d0d0d2" d="M 833.5,59.5 C 836.383,61.2532 837.883,63.9198 838,67.5C 838.831,73.8595 838.664,80.1928 837.5,86.5C 835.5,87.8333 833.5,87.8333 831.5,86.5C 829.946,84.0671 829.28,81.4005 829.5,78.5C 830.612,80.5994 831.279,82.9327 831.5,85.5C 832.5,85.5 833.5,85.5 834.5,85.5C 834.775,76.7794 834.442,68.1127 833.5,59.5 Z"/></g>
<g><path style="opacity:1" fill="#bec0c2" d="M 141.5,69.5 C 127.254,64.4692 115.087,67.4692 105,78.5C 104.278,83.0503 104.778,87.3836 106.5,91.5C 100.208,79.5144 103.541,70.681 116.5,65C 125.585,63.2377 133.919,64.7377 141.5,69.5 Z"/></g>
<g><path style="opacity:1" fill="#cfcfd0" d="M 395.5,75.5 C 386.731,70.9423 377.398,69.4423 367.5,71C 367,71.5 366.5,72 366,72.5C 365.199,87.5446 365.366,102.545 366.5,117.5C 365.167,117.5 363.833,117.5 362.5,117.5C 362.182,100.756 362.515,84.0895 363.5,67.5C 373.283,65.3163 382.617,66.483 391.5,71C 393.041,72.3712 394.375,73.8712 395.5,75.5 Z"/></g>
<g><path style="opacity:1" fill="#a7aab1" d="M 315.5,61.5 C 316.268,62.2625 316.768,63.2625 317,64.5C 317.5,71.8258 317.666,79.1591 317.5,86.5C 315.901,86.7678 314.568,86.4345 313.5,85.5C 314.5,85.5 315.5,85.5 316.5,85.5C 316.499,77.4827 316.166,69.4827 315.5,61.5 Z"/></g>
<g><path style="opacity:1" fill="#ebebeb" d="M 158.5,56.5 C 161.783,55.0449 164.283,56.0449 166,59.5C 166.667,72.8333 166.667,86.1667 166,99.5C 163.451,103.925 160.118,104.592 156,101.5C 154.391,94.5812 152.224,87.9146 149.5,81.5C 141.89,73.2464 132.556,69.4131 121.5,70C 118.833,71.6667 116.167,73.3333 113.5,75C 108.914,80.1798 108.414,85.6798 112,91.5C 117.104,96.9755 122.937,101.142 129.5,104C 134.09,108.1 138.756,111.933 143.5,115.5C 136.063,111.947 128.729,108.114 121.5,104C 115.69,100.768 110.69,96.6011 106.5,91.5C 104.778,87.3836 104.278,83.0503 105,78.5C 115.087,67.4692 127.254,64.4692 141.5,69.5C 145.454,71.6198 148.621,74.6198 151,78.5C 154.262,85.1476 156.762,91.8143 158.5,98.5C 160.489,99.8866 162.322,99.5532 164,97.5C 164.667,85.5 164.667,73.5 164,61.5C 163.241,59.9371 162.074,58.9371 160.5,58.5C 160.5,57.1667 159.833,56.5 158.5,56.5 Z"/></g>
<g><path style="opacity:1" fill="#ebeced" d="M 395.5,75.5 C 401.041,81.7778 402.875,89.1111 401,97.5C 400.33,100.174 399.163,102.507 397.5,104.5C 399.313,95.9259 398.646,87.5926 395.5,79.5C 387.762,73.232 379.096,71.3986 369.5,74C 368.51,88.0879 368.176,102.255 368.5,116.5C 372.869,116.533 377.202,116.2 381.5,115.5C 379.162,117.04 376.495,117.706 373.5,117.5C 371.167,117.5 368.833,117.5 366.5,117.5C 365.366,102.545 365.199,87.5446 366,72.5C 366.5,72 367,71.5 367.5,71C 377.398,69.4423 386.731,70.9423 395.5,75.5 Z"/></g>
<g><path style="opacity:1" fill="#fdfdfd" d="M 397.5,104.5 C 393.819,110.506 388.486,114.172 381.5,115.5C 377.202,116.2 372.869,116.533 368.5,116.5C 368.176,102.255 368.51,88.0879 369.5,74C 379.096,71.3986 387.762,73.232 395.5,79.5C 398.646,87.5926 399.313,95.9259 397.5,104.5 Z"/></g>
<g><path style="opacity:1" fill="#bfbfbf" d="M 823.5,69.5 C 808.854,68.4195 794.188,68.2528 779.5,69C 779,69.5 778.5,70 778,70.5C 777.5,84.8295 777.333,99.1628 777.5,113.5C 775.516,98.2023 774.849,82.5357 775.5,66.5C 789.837,66.3334 804.171,66.5001 818.5,67C 820.491,67.3736 822.158,68.207 823.5,69.5 Z"/></g>
<g><path style="opacity:1" fill="#c1c1c2" d="M 304.5,70.5 C 291.635,68.4347 278.635,67.9347 265.5,69C 265,69.5 264.5,70 264,70.5C 263.833,77.5 263.667,84.5 263.5,91.5C 263.503,98.8667 264.17,105.867 265.5,112.5C 272.5,112.5 279.5,112.5 286.5,112.5C 278.016,113.493 269.349,113.826 260.5,113.5C 260.5,97.8333 260.5,82.1667 260.5,66.5C 272.505,66.3335 284.505,66.5001 296.5,67C 299.599,67.3874 302.266,68.5541 304.5,70.5 Z"/></g>
<g><path style="opacity:1" fill="#ededed" d="M 509.5,56.5 C 512.752,54.8532 515.586,55.5198 518,58.5C 524.408,70.5619 528.908,83.2286 531.5,96.5C 534.05,96.5608 535.55,97.8941 536,100.5C 541.283,113.53 546.45,126.53 551.5,139.5C 549.355,136.653 547.355,133.653 545.5,130.5C 542.216,123.718 539.383,116.718 537,109.5C 535.261,107.957 533.761,106.29 532.5,104.5C 530.31,97.7699 527.81,91.1033 525,84.5C 524.703,81.086 524.036,77.7527 523,74.5C 519.64,69.869 516.807,64.869 514.5,59.5C 514.043,58.7025 513.376,58.3691 512.5,58.5C 512.179,56.9519 511.179,56.2852 509.5,56.5 Z"/></g>
<g><path style="opacity:1" fill="#eceded" d="M 815.5,109.5 C 814.251,111.136 812.584,112.303 810.5,113C 799.505,113.5 788.505,113.667 777.5,113.5C 777.333,99.1628 777.5,84.8295 778,70.5C 778.5,70 779,69.5 779.5,69C 794.188,68.2528 808.854,68.4195 823.5,69.5C 826.737,71.6304 828.737,74.6304 829.5,78.5C 829.28,81.4005 829.946,84.0671 831.5,86.5C 833.5,87.8333 835.5,87.8333 837.5,86.5C 838.664,80.1928 838.831,73.8595 838,67.5C 837.883,63.9198 836.383,61.2532 833.5,59.5C 802.833,59.5 772.167,59.5 741.5,59.5C 742.263,58.7321 743.263,58.2321 744.5,58C 759.667,57.8333 774.833,57.6667 790,57.5C 805.922,57.3476 821.756,57.8476 837.5,59C 838.717,60.6477 839.55,62.481 840,64.5C 840.667,72.5 840.667,80.5 840,88.5C 835.498,92.8672 831.832,92.2005 829,86.5C 828.667,79.4264 825.167,74.9264 818.5,73C 812.5,72.8333 806.5,72.6667 800.5,72.5C 794.092,72.5229 787.925,73.1896 782,74.5C 781.188,86.546 781.354,98.546 782.5,110.5C 793.599,112.015 804.599,111.681 815.5,109.5 Z"/></g>
<g><path style="opacity:1" fill="#b8babc" d="M 733.5,59.5 C 734.167,59.5 734.5,59.8333 734.5,60.5C 734.769,62.4286 734.269,64.0953 733,65.5C 731.23,64.7236 729.397,64.8903 727.5,66C 725.023,67.6427 722.69,69.476 720.5,71.5C 719.333,104.495 719.167,137.495 720,170.5C 721.188,171.563 721.688,172.897 721.5,174.5C 718.988,172.522 717.488,169.855 717,166.5C 716.333,134.833 716.333,103.167 717,71.5C 719.967,64.1052 725.467,61.1052 733.5,62.5C 733.5,61.5 733.5,60.5 733.5,59.5 Z"/></g>
<g><path style="opacity:1" fill="#ebeced" d="M 327.5,62.5 C 330.187,62.3359 332.854,62.5026 335.5,63C 339.499,63.6678 342.332,65.8345 344,69.5C 344.667,102.833 344.667,136.167 344,169.5C 340.156,175.5 334.656,177.834 327.5,176.5C 330.719,174.282 334.386,173.115 338.5,173C 339.99,172.255 340.99,171.088 341.5,169.5C 342.833,137.5 342.833,105.5 341.5,73.5C 341.167,72.8333 340.833,72.1667 340.5,71.5C 336.721,70.2885 333.055,68.7885 329.5,67C 328.733,65.5295 328.067,64.0295 327.5,62.5 Z"/></g>
<g><path style="opacity:1" fill="#8c929e" d="M 363.5,67.5 C 362.515,84.0895 362.182,100.756 362.5,117.5C 363.833,117.5 365.167,117.5 366.5,117.5C 368.833,117.5 371.167,117.5 373.5,117.5C 369.702,118.483 365.702,118.817 361.5,118.5C 360.848,101.134 361.514,84.1338 363.5,67.5 Z"/></g>
<g><path style="opacity:1" fill="#e1e2e3" d="M 226.5,62.5 C 233.384,61.8422 238.884,64.1756 243,69.5C 243.667,102.167 243.667,134.833 243,167.5C 242.89,170.768 241.39,173.101 238.5,174.5C 237.537,172.702 238.204,171.368 240.5,170.5C 241.281,169.271 241.781,167.938 242,166.5C 242.667,134.833 242.667,103.167 242,71.5C 238.417,68.4266 234.25,66.7599 229.5,66.5C 228.476,65.1482 227.476,63.8149 226.5,62.5 Z"/></g>
<g><path style="opacity:1" fill="#cbced5" d="M 741.5,62.5 C 745.273,62.2633 748.94,62.7633 752.5,64C 755.428,65.2598 757.261,67.4265 758,70.5C 758.831,102.669 758.664,134.669 757.5,166.5C 757.667,135.498 757.5,104.498 757,73.5C 754.795,69.4778 751.295,67.6445 746.5,68C 744.7,66.1881 743.033,64.3548 741.5,62.5 Z"/></g>
<g><path style="opacity:1" fill="#e1e2e3" d="M 400.5,62.5 C 404.792,62.0349 408.792,62.8682 412.5,65C 422.992,74.8532 427.158,87.0198 425,101.5C 419.254,111.58 411.254,119.247 401,124.5C 401.513,128.706 402.846,132.706 405,136.5C 412.5,145.646 420.167,154.312 428,162.5C 431.42,168.354 436.587,171.854 443.5,173C 453.167,174.912 459.333,171.079 462,161.5C 462.671,160.748 463.504,160.414 464.5,160.5C 462.477,166.016 459.144,170.516 454.5,174C 442.099,177.536 431.599,174.369 423,164.5C 414.666,153.823 406.833,142.823 399.5,131.5C 397.914,128.729 397.414,125.729 398,122.5C 409.389,119.109 417.722,112.109 423,101.5C 423.83,95.4724 423.664,89.4724 422.5,83.5C 421.482,82.8075 420.482,82.1408 419.5,81.5C 416.134,72.1344 409.801,65.801 400.5,62.5 Z"/></g>
<g><path style="opacity:1" fill="#d2d2d2" d="M 160.5,58.5 C 162.074,58.9371 163.241,59.9371 164,61.5C 164.667,73.5 164.667,85.5 164,97.5C 162.322,99.5532 160.489,99.8866 158.5,98.5C 160.481,85.5419 161.148,72.2086 160.5,58.5 Z"/></g>
<g><path style="opacity:1" fill="#bdbec0" d="M 419.5,81.5 C 420.482,82.1408 421.482,82.8075 422.5,83.5C 423.664,89.4724 423.83,95.4724 423,101.5C 417.722,112.109 409.389,119.109 398,122.5C 397.414,125.729 397.914,128.729 399.5,131.5C 396.404,128.304 394.07,124.638 392.5,120.5C 414.152,116.182 423.152,103.182 419.5,81.5 Z"/></g>
<g><path style="opacity:1" fill="#c6c7c9" d="M 512.5,58.5 C 513.376,58.3691 514.043,58.7025 514.5,59.5C 516.807,64.869 519.64,69.869 523,74.5C 524.036,77.7527 524.703,81.086 525,84.5C 527.81,91.1033 530.31,97.7699 532.5,104.5C 525.656,89.3211 518.989,73.9878 512.5,58.5 Z"/></g>
<g><path style="opacity:1" fill="#c4c4c5" d="M 611.5,95.5 C 609.871,93.9397 608.704,94.273 608,96.5C 607.5,121.498 607.333,146.498 607.5,171.5C 610.142,171.488 611.475,172.821 611.5,175.5C 607.704,174.2 605.537,171.533 605,167.5C 604.333,138.5 604.333,109.5 605,80.5C 607.179,85.5215 609.346,90.5215 611.5,95.5 Z"/></g>
<g><path style="opacity:1" fill="#e7e7e7" d="M 820.5,139.5 C 822.441,139.131 824.275,138.464 826,137.5C 826.667,125.167 826.667,112.833 826,100.5C 825.066,99.1416 824.232,97.8083 823.5,96.5C 822.5,96.5 821.5,96.5 820.5,96.5C 824.576,93.687 827.576,94.687 829.5,99.5C 828.702,112.807 828.202,126.141 828,139.5C 825.379,142.14 822.879,142.14 820.5,139.5 Z"/></g>
<g><path style="opacity:1" fill="#c7c7c7" d="M 301.5,98.5 C 303.045,99.2297 303.878,100.563 304,102.5C 304.667,113.167 304.667,123.833 304,134.5C 303.623,135.942 302.79,136.942 301.5,137.5C 301.5,124.5 301.5,111.5 301.5,98.5 Z"/></g>
<g><path style="opacity:1" fill="#b9bbc0" d="M 823.5,96.5 C 824.232,97.8083 825.066,99.1416 826,100.5C 826.667,112.833 826.667,125.167 826,137.5C 824.275,138.464 822.441,139.131 820.5,139.5C 819.532,137.393 819.198,135.059 819.5,132.5C 820.451,133.919 820.784,135.585 820.5,137.5C 821.5,137.5 822.5,137.5 823.5,137.5C 823.5,123.833 823.5,110.167 823.5,96.5 Z"/></g>
<g><path style="opacity:1" fill="#b0b1b3" d="M 508.5,91.5 C 506.856,91.2865 505.356,91.6198 504,92.5C 499.627,103.585 494.96,114.585 490,125.5C 489.338,127.813 488.838,130.146 488.5,132.5C 487.5,132.5 486.5,132.5 485.5,132.5C 491.77,116.696 498.437,101.029 505.5,85.5C 506.509,87.5177 507.509,89.5177 508.5,91.5 Z"/></g>
<g><path style="opacity:1" fill="#bebebf" d="M 699.5,93.5 C 697.807,94.4749 696.307,95.8082 695,97.5C 689.843,111.668 683.177,125.002 675,137.5C 673.192,146.115 669.525,153.782 664,160.5C 661.999,167.851 658.499,174.184 653.5,179.5C 668.653,146.526 683.819,113.526 699,80.5C 699.499,84.8206 699.666,89.1539 699.5,93.5 Z"/></g>
<g><path style="opacity:1" fill="#aaacaf" d="M 288.5,121.5 C 280.826,121.334 273.159,121.5 265.5,122C 263.667,122.5 262.5,123.667 262,125.5C 260.972,141.25 261.472,156.917 263.5,172.5C 262.073,170.852 261.24,168.852 261,166.5C 260.5,151.17 260.333,135.837 260.5,120.5C 270.015,120.173 279.348,120.506 288.5,121.5 Z"/></g>
<g><path style="opacity:1" fill="#e3e4e4" d="M 508.5,91.5 C 513.443,103.054 518.11,114.721 522.5,126.5C 523.771,128.109 524.771,129.942 525.5,132C 513.171,132.5 500.838,132.667 488.5,132.5C 488.838,130.146 489.338,127.813 490,125.5C 494.96,114.585 499.627,103.585 504,92.5C 505.356,91.6198 506.856,91.2865 508.5,91.5 Z"/></g>
<g><path style="opacity:1" fill="#fcfcfc" d="M 522.5,126.5 C 522.5,128.167 522.5,129.833 522.5,131.5C 512.5,131.5 502.5,131.5 492.5,131.5C 493.317,128.521 494.151,125.521 495,122.5C 499.438,115.54 503.271,108.207 506.5,100.5C 506.833,100.167 507.167,99.8333 507.5,99.5C 508.36,101.931 510.027,103.264 512.5,103.5C 514.107,110.043 516.274,116.376 519,122.5C 519.66,124.324 520.827,125.657 522.5,126.5 Z"/></g>
<g><path style="opacity:1" fill="#eeeeee" d="M 299.5,96.5 C 301.725,95.2488 303.891,95.5822 306,97.5C 306.667,111.833 306.667,126.167 306,140.5C 303.847,142.444 301.347,142.944 298.5,142C 296.324,138.489 294.824,134.656 294,130.5C 293.097,129.299 291.931,128.465 290.5,128C 282.587,127.186 274.754,127.353 267,128.5C 266.112,142.541 266.446,156.541 268,170.5C 268.833,171.333 269.667,172.167 270.5,173C 273.914,173.297 277.247,173.964 280.5,175C 284.311,178.723 283.977,182.056 279.5,185C 262.5,185.667 245.5,185.667 228.5,185C 225.52,182.586 224.853,179.752 226.5,176.5C 226.5,177.5 226.5,178.5 226.5,179.5C 228.167,179.5 229.833,179.5 231.5,179.5C 231.577,180.75 232.244,181.583 233.5,182C 249.163,182.5 264.83,182.667 280.5,182.5C 280.756,180.208 280.423,178.041 279.5,176C 276.183,175.502 272.85,175.335 269.5,175.5C 269.167,175.5 268.833,175.5 268.5,175.5C 267.243,172.904 266.076,170.237 265,167.5C 264.667,167.833 264.333,168.167 264,168.5C 263.167,154.155 263.334,139.822 264.5,125.5C 268.817,124.228 273.317,123.562 278,123.5C 283.672,123.275 289.172,123.942 294.5,125.5C 295.79,126.058 296.623,127.058 297,128.5C 297.498,131.482 297.665,134.482 297.5,137.5C 298.833,137.5 300.167,137.5 301.5,137.5C 302.79,136.942 303.623,135.942 304,134.5C 304.667,123.833 304.667,113.167 304,102.5C 303.878,100.563 303.045,99.2297 301.5,98.5C 301.5,97.1667 300.833,96.5 299.5,96.5 Z"/></g>
<g><path style="opacity:1" fill="#c8c8c8" d="M 816.5,124.5 C 804.533,123.395 792.533,123.229 780.5,124C 780,124.5 779.5,125 779,125.5C 778.333,140.167 778.333,154.833 779,169.5C 779.513,170.527 780.013,171.527 780.5,172.5C 778.629,172.141 777.129,171.141 776,169.5C 775.5,153.17 775.333,136.837 775.5,120.5C 786.838,120.333 798.172,120.5 809.5,121C 812.442,121.144 814.776,122.311 816.5,124.5 Z"/></g>
<g><path style="opacity:1" fill="#cbcbcc" d="M 288.5,121.5 C 291.198,121.845 293.198,123.178 294.5,125.5C 289.172,123.942 283.672,123.275 278,123.5C 273.317,123.562 268.817,124.228 264.5,125.5C 263.334,139.822 263.167,154.155 264,168.5C 264.333,168.167 264.667,167.833 265,167.5C 266.076,170.237 267.243,172.904 268.5,175.5C 266.566,174.89 264.899,173.89 263.5,172.5C 261.472,156.917 260.972,141.25 262,125.5C 262.5,123.667 263.667,122.5 265.5,122C 273.159,121.5 280.826,121.334 288.5,121.5 Z"/></g>
<g><path style="opacity:1" fill="#b3b4b8" d="M 376.5,126.5 C 372.482,125.329 368.482,125.329 364.5,126.5C 363.167,140.5 363.167,154.5 364.5,168.5C 365.141,169.993 366.141,170.993 367.5,171.5C 367.733,173.062 368.4,174.395 369.5,175.5C 364.063,173.989 361.563,170.323 362,164.5C 361.5,150.837 361.333,137.171 361.5,123.5C 365.846,123.334 370.179,123.501 374.5,124C 375.381,124.708 376.047,125.542 376.5,126.5 Z"/></g>
<g><path style="opacity:1" fill="#dfe0e0" d="M 614.5,61.5 C 616.074,61.9371 617.241,62.9371 618,64.5C 624.411,74.9864 630.078,85.9864 635,97.5C 638.833,100.979 641.167,105.312 642,110.5C 647.709,120.946 653.042,131.613 658,142.5C 658.986,143.171 660.153,143.171 661.5,142.5C 660.286,145.93 658.786,149.264 657,152.5C 642.819,122.14 628.653,91.8071 614.5,61.5 Z"/></g>
<g><path style="opacity:1" fill="#c7c8cb" d="M 103.5,114.5 C 116.869,122.847 130.203,131.181 143.5,139.5C 141.692,139.509 140.025,139.009 138.5,138C 126.725,131.121 115.059,124.288 103.5,117.5C 103.5,116.5 103.5,115.5 103.5,114.5 Z"/></g>
<g><path style="opacity:1" fill="#c3c3c4" d="M 529.5,143.5 C 514.574,142.351 499.574,142.184 484.5,143C 481.143,149.569 478.309,156.402 476,163.5C 475.322,167.221 475.489,170.888 476.5,174.5C 472.615,174.114 470.615,171.947 470.5,168C 473.478,158.568 477.145,149.401 481.5,140.5C 497.167,139.167 512.833,139.167 528.5,140.5C 529.127,141.417 529.461,142.417 529.5,143.5 Z"/></g>
<g><path style="opacity:1" fill="#e8e8e8" d="M 816.5,124.5 C 818.606,126.719 819.606,129.385 819.5,132.5C 818.053,131.378 817.053,129.878 816.5,128C 814.641,127.316 812.974,126.316 811.5,125C 801.833,124.333 792.167,124.333 782.5,125C 781.874,125.75 781.374,126.584 781,127.5C 780.333,141.833 780.333,156.167 781,170.5C 793.42,171.489 805.92,171.822 818.5,171.5C 806.011,172.495 793.344,172.829 780.5,172.5C 780.013,171.527 779.513,170.527 779,169.5C 778.333,154.833 778.333,140.167 779,125.5C 779.5,125 780,124.5 780.5,124C 792.533,123.229 804.533,123.395 816.5,124.5 Z"/></g>
<g><path style="opacity:1" fill="#e9eaea" d="M 699.5,93.5 C 699.667,118.502 699.5,143.502 699,168.5C 698.654,170.848 697.487,172.681 695.5,174C 691.454,176.174 687.121,177.007 682.5,176.5C 685.719,174.282 689.386,173.115 693.5,173C 695.541,171.758 696.707,169.925 697,167.5C 697.987,146.351 697.653,125.351 696,104.5C 683.691,130.113 671.691,155.779 660,181.5C 654.865,185.957 650.532,185.29 647,179.5C 646.174,176.207 645.674,172.874 645.5,169.5C 647.46,172.177 648.96,175.177 650,178.5C 651.011,179.337 652.178,179.67 653.5,179.5C 658.499,174.184 661.999,167.851 664,160.5C 669.525,153.782 673.192,146.115 675,137.5C 683.177,125.002 689.843,111.668 695,97.5C 696.307,95.8082 697.807,94.4749 699.5,93.5 Z"/></g>
<g><path style="opacity:1" fill="#687893" d="M 93.5,141.5 C 92.5,141.5 91.5,141.5 90.5,141.5C 90.5,155.167 90.5,168.833 90.5,182.5C 89.5044,169.344 89.1711,156.01 89.5,142.5C 89.62,141.414 90.2867,140.747 91.5,140.5C 92.4164,140.543 93.0831,140.876 93.5,141.5 Z"/></g>
<g><path style="opacity:1" fill="#dbdcdc" d="M 532.5,104.5 C 533.761,106.29 535.261,107.957 537,109.5C 539.383,116.718 542.216,123.718 545.5,130.5C 547.355,133.653 549.355,136.653 551.5,139.5C 556.29,150.78 560.956,162.113 565.5,173.5C 563.629,173.141 562.129,172.141 561,170.5C 550.234,149.033 540.734,127.033 532.5,104.5 Z"/></g>
<g><path style="opacity:1" fill="#c3c4c5" d="M 166.5,136.5 C 176.273,162.107 167.607,178.273 140.5,185C 130.746,186.475 121.412,185.142 112.5,181C 107.857,180.002 103.19,179.668 98.5,180C 97.2748,181.563 95.7748,182.73 94,183.5C 93.2352,183.43 92.7352,183.097 92.5,182.5C 92.8151,178.235 95.1484,175.901 99.5,175.5C 104.67,176.418 109.67,177.918 114.5,180C 119.607,181.222 124.774,182.055 130,182.5C 159.191,180.388 171.358,165.054 166.5,136.5 Z"/></g>
<g><path style="opacity:1" fill="#e0e1e3" d="M 93.5,141.5 C 95.3904,141.297 96.8904,141.963 98,143.5C 99.8028,148.296 100.969,153.296 101.5,158.5C 102.822,158.33 103.989,158.663 105,159.5C 106.502,162.018 108.002,164.518 109.5,167C 118.487,171.766 128.154,173.933 138.5,173.5C 112.721,178.416 97.7208,167.75 93.5,141.5 Z"/></g>
<g><path style="opacity:1" fill="#cfcfd0" d="M 269.5,175.5 C 272.85,175.335 276.183,175.502 279.5,176C 280.423,178.041 280.756,180.208 280.5,182.5C 264.83,182.667 249.163,182.5 233.5,182C 232.244,181.583 231.577,180.75 231.5,179.5C 246.833,179.5 262.167,179.5 277.5,179.5C 277.5,178.5 277.5,177.5 277.5,176.5C 274.615,176.806 271.948,176.473 269.5,175.5 Z"/></g>
<g><path style="opacity:1" fill="#cccccd" d="M 370.5,175.5 C 373.713,175.19 376.713,175.523 379.5,176.5C 380.341,178.379 380.675,180.379 380.5,182.5C 365.496,182.667 350.496,182.5 335.5,182C 334.429,181.148 333.429,180.315 332.5,179.5C 347.833,179.5 363.167,179.5 378.5,179.5C 378.5,178.5 378.5,177.5 378.5,176.5C 375.615,176.806 372.948,176.473 370.5,175.5 Z"/></g>
<g><path style="opacity:1" fill="#cecece" d="M 733.5,176.5 C 734.807,178.223 734.807,180.057 733.5,182C 718.167,182.667 702.833,182.667 687.5,182C 686.748,181.329 686.414,180.496 686.5,179.5C 702.167,179.5 717.833,179.5 733.5,179.5C 733.5,178.5 733.5,177.5 733.5,176.5 Z"/></g>
<g><path style="opacity:1" fill="#eaeaea" d="M 379.5,176.5 C 381.722,176.559 382.722,177.725 382.5,180C 382.646,182.188 381.646,183.521 379.5,184C 363.5,184.667 347.5,184.667 331.5,184C 329.137,183.411 328.137,181.911 328.5,179.5C 329.833,179.5 331.167,179.5 332.5,179.5C 333.429,180.315 334.429,181.148 335.5,182C 350.496,182.5 365.496,182.667 380.5,182.5C 380.675,180.379 380.341,178.379 379.5,176.5 Z"/></g>
<g><path style="opacity:1" fill="#ececec" d="M 376.5,126.5 C 388.858,143.851 401.192,161.185 413.5,178.5C 413.511,180.017 414.177,181.184 415.5,182C 438.864,182.803 462.197,182.636 485.5,181.5C 485.784,179.585 485.451,177.919 484.5,176.5C 481.833,175.833 479.167,175.167 476.5,174.5C 475.489,170.888 475.322,167.221 476,163.5C 478.309,156.402 481.143,149.569 484.5,143C 499.574,142.184 514.574,142.351 529.5,143.5C 531.065,145.509 532.065,147.843 532.5,150.5C 530.967,148.645 529.3,146.812 527.5,145C 514.154,144.167 500.821,144.334 487.5,145.5C 484.703,150.416 482.203,155.416 480,160.5C 478.101,164.621 477.268,168.954 477.5,173.5C 481.839,172.846 485.673,173.846 489,176.5C 490.123,179.956 489.29,182.79 486.5,185C 463.167,185.667 439.833,185.667 416.5,185C 414.04,183.542 411.873,181.709 410,179.5C 407.222,173.831 403.555,168.831 399,164.5C 398.031,159.549 395.364,155.882 391,153.5C 388.565,150.066 386.565,146.4 385,142.5C 380.667,138.663 376.834,134.33 373.5,129.5C 371.305,128.231 369.139,128.231 367,129.5C 366.219,143.532 366.386,157.532 367.5,171.5C 366.141,170.993 365.141,169.993 364.5,168.5C 363.167,154.5 363.167,140.5 364.5,126.5C 368.482,125.329 372.482,125.329 376.5,126.5 Z"/></g>
<g><path style="opacity:1" fill="#cdcdcd" d="M 484.5,176.5 C 485.451,177.919 485.784,179.585 485.5,181.5C 462.197,182.636 438.864,182.803 415.5,182C 414.177,181.184 413.511,180.017 413.5,178.5C 437.092,179.489 460.759,179.823 484.5,179.5C 484.5,178.5 484.5,177.5 484.5,176.5 Z"/></g>
<g><path style="opacity:1" fill="#e7e7e8" d="M 579.5,60.5 C 583.65,62.1799 587.983,64.0132 592.5,66C 594.041,67.5793 595.208,69.4127 596,71.5C 596.667,103.5 596.667,135.5 596,167.5C 595.484,170.034 594.317,172.2 592.5,174C 588.414,176.053 584.08,176.887 579.5,176.5C 579.5,177.5 579.5,178.5 579.5,179.5C 593.5,179.5 607.5,179.5 621.5,179.5C 621.5,178.5 621.5,177.5 621.5,176.5C 618.061,176.747 614.728,176.414 611.5,175.5C 611.475,172.821 610.142,171.488 607.5,171.5C 607.333,146.498 607.5,121.498 608,96.5C 608.704,94.273 609.871,93.9397 611.5,95.5C 623.378,119.923 634.712,144.59 645.5,169.5C 644.504,169.586 643.671,169.252 643,168.5C 639.214,158.928 634.881,149.595 630,140.5C 629.51,139.207 629.343,137.873 629.5,136.5C 628.325,136.719 627.325,136.386 626.5,135.5C 621.964,125.074 617.131,114.74 612,104.5C 611.667,104.833 611.333,105.167 611,105.5C 610.333,126.167 610.333,146.833 611,167.5C 611.293,169.925 612.459,171.758 614.5,173C 619.005,172.943 622.839,174.443 626,177.5C 627.271,181.166 626.104,183.666 622.5,185C 591.534,185.013 560.534,185.013 529.5,185C 525.707,183.447 524.707,180.947 526.5,177.5C 528.635,179.369 531.302,180.036 534.5,179.5C 540.295,180.83 546.462,181.496 553,181.5C 559.167,181.333 565.333,181.167 571.5,181C 572.056,180.617 572.389,180.117 572.5,179.5C 574.048,179.179 574.715,178.179 574.5,176.5C 571.084,176.472 568.084,175.472 565.5,173.5C 570.343,173.117 575.009,173.783 579.5,175.5C 583.067,174.239 586.734,173.405 590.5,173C 592.886,171.113 594.053,168.613 594,165.5C 594.667,136.5 594.667,107.5 594,78.5C 594.053,75.3873 592.886,72.8873 590.5,71C 586.38,70.1168 582.547,68.6168 579,66.5C 578.211,64.2884 578.378,62.2884 579.5,60.5 Z"/></g>
<g><path style="opacity:1" fill="#c2c2c2" d="M 534.5,179.5 C 547.167,179.5 559.833,179.5 572.5,179.5C 572.389,180.117 572.056,180.617 571.5,181C 565.333,181.167 559.167,181.333 553,181.5C 546.462,181.496 540.295,180.83 534.5,179.5 Z"/></g>
<g><path style="opacity:1" fill="#eaeaea" d="M 734.5,60.5 C 736.647,61.9321 736.98,63.7655 735.5,66C 732.623,67.1268 729.623,67.7935 726.5,68C 725.667,68.8333 724.833,69.6667 724,70.5C 722.017,103.503 722.017,136.503 724,169.5C 724.465,170.931 725.299,172.097 726.5,173C 731.309,173.214 735.643,174.714 739.5,177.5C 740.183,177.137 740.85,176.804 741.5,176.5C 741.5,177.5 741.5,178.5 741.5,179.5C 745.167,179.5 748.833,179.5 752.5,179.5C 765.817,180.833 779.483,181.499 793.5,181.5C 807.167,181.333 820.833,181.167 834.5,181C 836.552,180.07 838.052,178.57 839,176.5C 841.769,168.753 843.269,160.753 843.5,152.5C 843.5,151.5 843.5,150.5 843.5,149.5C 842.5,149.5 841.5,149.5 840.5,149.5C 844.856,147.415 847.856,148.749 849.5,153.5C 846.63,162.945 843.463,172.278 840,181.5C 838.786,183.049 837.286,184.215 835.5,185C 804.833,185.667 774.167,185.667 743.5,185C 740.833,181.667 738.167,181.667 735.5,185C 718.833,185.667 702.167,185.667 685.5,185C 681.707,183.447 680.707,180.947 682.5,177.5C 683.183,179.176 684.517,179.843 686.5,179.5C 686.414,180.496 686.748,181.329 687.5,182C 702.833,182.667 718.167,182.667 733.5,182C 734.807,180.057 734.807,178.223 733.5,176.5C 729.295,176.809 725.295,176.143 721.5,174.5C 721.688,172.897 721.188,171.563 720,170.5C 719.167,137.495 719.333,104.495 720.5,71.5C 722.69,69.476 725.023,67.6427 727.5,66C 729.397,64.8903 731.23,64.7236 733,65.5C 734.269,64.0953 734.769,62.4286 734.5,60.5 Z"/></g>
<g><path style="opacity:1" fill="#c0c0c1" d="M 843.5,152.5 C 843.269,160.753 841.769,168.753 839,176.5C 838.052,178.57 836.552,180.07 834.5,181C 820.833,181.167 807.167,181.333 793.5,181.5C 779.483,181.499 765.817,180.833 752.5,179.5C 779.502,179.667 806.502,179.5 833.5,179C 836.563,169.968 839.896,161.135 843.5,152.5 Z"/></g>
<g><path style="opacity:1" fill="#ececec" d="M 143.5,115.5 C 150.941,116.053 157.274,119.053 162.5,124.5C 175.847,138.04 178.014,153.373 169,170.5C 164.833,173.333 161.333,176.833 158.5,181C 155.39,181.053 153.056,182.386 151.5,185C 141.01,187.508 130.343,188.174 119.5,187C 113.426,184.252 107.093,182.919 100.5,183C 98.2318,187.042 94.8985,188.375 90.5,187C 89.1068,185.829 88.2735,184.329 88,182.5C 87.3333,169.833 87.3333,157.167 88,144.5C 88.2784,143.584 88.7784,142.918 89.5,142.5C 89.1711,156.01 89.5044,169.344 90.5,182.5C 91.1667,182.5 91.8333,182.5 92.5,182.5C 92.7352,183.097 93.2352,183.43 94,183.5C 95.7748,182.73 97.2748,181.563 98.5,180C 103.19,179.668 107.857,180.002 112.5,181C 121.412,185.142 130.746,186.475 140.5,185C 167.607,178.273 176.273,162.107 166.5,136.5C 160.461,127.798 152.794,120.798 143.5,115.5 Z"/></g>
</svg>
